<svg xmlns="http://www.w3.org/2000/svg" xmlns:xlink="http://www.w3.org/1999/xlink" id="Camada_1" x="0px" y="0px" viewBox="0 0 311 107" style="enable-background:new 0 0 311 107;" xml:space="preserve"><style type="text/css">	.st0{fill:#191919;}</style><path class="st0" d="M34.8,53.1c0.3,2.6,1.1,8.3,1.1,8.2c0,0,2.1,0.5,5,1.1C41.4,60.6,43.6,51.1,34.8,53.1z"></path><path class="st0" d="M71.4,50.9c0.2-2.6,1.1-12.4,1.1-12.4C69.8,38.3,62,38.1,62,38.1c0.1,4.8,0,12.8,0,12.8 C63.2,51,71.4,50.9,71.4,50.9L71.4,50.9z M63.1,39.1c0,0,5.5,0.1,7.9,0.1c0,0-0.5,8.5-0.6,10.5c0,0-6.2,0.2-7.3,0.1 C63,49.8,63,41.5,63.1,39.1L63.1,39.1z"></path><path class="st0" d="M23.7,38.4c0,0,0.8,9.9,1.1,12.4c0,0,8.2,0.1,9.4,0.1c0,0-0.1-8,0-12.8C34.1,38.1,26.3,38.2,23.7,38.4 L23.7,38.4z M33.1,49.8c-1.1,0.1-7.3-0.1-7.3-0.1c0-2-0.6-10.5-0.6-10.5c2.3,0,7.9-0.1,7.9-0.1C33.2,41.5,33.1,49.8,33.1,49.8z"></path><path class="st0" d="M55.1,62.4c2.9-0.6,5.1-1.1,5.1-1c0,0.1,0.7-5.6,1.1-8.2C52.5,51.2,54.6,60.6,55.1,62.4z"></path><path class="st0" d="M48.1,52C48.1,52,48.1,52,48.1,52C48.1,52,48.1,52,48.1,52c-4,0.4-4.6,8.2-4,9.5c0.6,1.3,2.4,2.2,4,2.3 c0,0,0,0,0,0c0,0,0,0,0,0c1.6-0.1,3.3-1,4-2.3C52.6,60.2,52,52.4,48.1,52L48.1,52z M51.2,60.5c0,1.4-1,2.4-3.1,2.4c0,0,0,0,0,0 s0,0,0,0c-2,0-3.1-1-3.1-2.4c0-0.2-0.1-7.2,3.1-7.3v0c0,0,0,0,0,0c0,0,0,0,0,0v0C51.3,53.3,51.2,60.3,51.2,60.5L51.2,60.5z"></path><path class="st0" d="M87.5,17.7L87.5,17.7L8.4,17.6c-1,0-1.8,0.8-1.8,1.8L6.5,98.7c0,1,0.8,1.8,1.8,1.9l79.1,0.1h0 c1.2,0,2.1-0.9,2.1-2.1v0l0.1-61l0-17.7C89.6,18.6,88.7,17.7,87.5,17.7L87.5,17.7z M46.1,34.8l1.5-2.8c0.1-0.2,0.3-0.2,0.4,0 l1.5,2.7c0.1,0.1,0.3,0.2,0.4,0.1l1.8-1.7c0.2-0.2,0.4,0,0.4,0.2l-0.3,7.1c0,0.1-0.1,0.2-0.2,0.2l-6.9,0.1c-0.1,0-0.2-0.1-0.2-0.2 l-0.8-7.4c0-0.2,0.3-0.4,0.4-0.2l1.7,2C45.8,35,46,34.9,46.1,34.8L46.1,34.8z M47.5,85l-12.1,0c-0.2,0-0.3-0.1-0.2-0.3l2.1-9.1 c0-0.1,0.1-0.1,0.1-0.1c4.5-3.1,8.9-2,10.2-1.5c0.1,0,0.2,0.1,0.2,0.2l0,10.6C47.7,84.9,47.6,85,47.5,85L47.5,85z M37.7,73.7l2-8.5 c0-0.1,0.2-0.2,0.3-0.2c1.4,0.3,3,0.7,4.4,0.9c0.2,0,0.5,0.1,0.7,0.1c0,0,0,0,0.1,0c1.1,0.2,2.1,0.3,2.9,0.4h0h0 c0.9,0,1.9-0.2,2.9-0.4c0,0,0,0,0,0c0.2,0,0.5-0.1,0.7-0.1c1.5-0.3,3-0.6,4.4-0.9c0.1,0,0.3,0.1,0.3,0.2l2,8.5 c0,0.2-0.2,0.4-0.4,0.3c-4.7-2.9-9.2-1.2-9.9-0.9c-0.1,0-0.1,0-0.2,0c-0.7-0.3-5.1-1.9-9.9,0.9C37.9,74.1,37.6,73.9,37.7,73.7 L37.7,73.7z M48.3,84.8l0-10.6c0-0.1,0.1-0.2,0.2-0.2c1.4-0.5,5.7-1.6,10.2,1.5c0.1,0,0.1,0.1,0.1,0.1l2.1,9.1 c0,0.2-0.1,0.3-0.2,0.3l-12.1,0C48.4,85,48.3,84.9,48.3,84.8z M73.3,52.7l-10.2,0.7c-0.1,0-0.2,0.1-0.2,0.2 c-0.2,1.4-1.3,9.4-1.2,9.3c0,0-9,2.6-13.7,2.9h0c0,0,0,0,0,0c0,0,0,0,0,0c0,0,0,0,0,0c-4.7-0.3-13.7-3-13.7-2.9c0,0.1-1-7.9-1.2-9.3 c0-0.1-0.1-0.2-0.2-0.2l-10.2-0.7c-0.1,0-0.2-0.1-0.2-0.2l-1.6-16c0-0.1,0.1-0.3,0.2-0.3c5.3-0.4,13.2-0.7,14.7-0.7 c0.1,0,0.2,0.1,0.2,0.2c0,1.9,0.3,6,0.4,8.8c0,0.3,0.4,0.3,0.5,0v0c0-0.1,0.1-0.2,0.2-0.2c3.4-0.7,8.7-1.4,10.9-1.4h0 c2.2,0,7.4,0.6,10.8,1.4c0.1,0,0.2,0.1,0.2,0.2c0,0.3,0.5,0.3,0.5,0c0.2-2.8,0.4-6.9,0.4-8.8c0-0.1,0.1-0.2,0.2-0.2 c1.5,0.1,9.3,0.4,14.7,0.7c0.1,0,0.2,0.1,0.2,0.3l-1.6,16C73.6,52.6,73.5,52.7,73.3,52.7L73.3,52.7z"></path><path class="st0" d="M290.5,65.4v6.8h-2.1v-6.8h-2.7v-1.7h7.4v1.7H290.5L290.5,65.4z M303.6,72.2h-1.9V66h0l-1.8,6.2H298l-1.8-6.2h0 v6.2h-1.9v-8.5h2.8l1.9,6.3l1.8-6.3h2.8V72.2z"></path><path class="st0" d="M251,48.6c2.8-2,5-4.7,6.7-7.7c1.1-1.9,2.3-3.8,3.2-5.8c1-2-2.7-3.6-4.1-4.1c-1.1-0.4-2.3-0.4-3.4,0 c-3.2,1.2-4,5.2-4.4,8.2c-0.2,2.8,0,5.5,0.3,8.4C249.5,48.4,250.3,49.1,251,48.6L251,48.6z M255.2,32.9c0.4,0,0.6,0,1.1,0.2 c0.8,0.3,1.7,0.8,2.3,1.3c0.1,0.1,0.1,0.1,0.2,0.2c-2.1,3.9-4.1,8.1-7.5,11.1c-0.2-2.1-0.3-4.2-0.1-6.3 C251.5,37,252.3,33,255.2,32.9L255.2,32.9z"></path><path class="st0" d="M111.4,57.7c1.4-0.2,2.8-0.6,4.1-1.1c5.7-2.1,11.3-4.4,16.9-6.9c2.1-0.9,4.2-1.9,6.4-2.1 c1.2,4.7,5.8,7.9,10.3,8.9c6,1.3,12.5,0.2,18.2-1.7c5.2-1.8,10-4.5,14.4-7.8c1.5-1.1,2.9-2.3,4.2-3.6c0.1,3.2,0.8,6.5,2.5,9.1 c1.8,2.8,4.7,4.4,7.9,4.7c1.8,0.2,3.9,0.2,5.5-0.6c1.6-0.7,3-2.1,4.1-3.5c1.4-1.7,2.6-3.5,3.7-5.4c0.7,2.4,1.8,4.7,3.5,6.4 c3.8,3.9,9.9,3.3,13.3-0.4c0.2,1,0.7,1.9,1.4,2.6c1.6,1.7,4.1,2.2,6.3,2.2c1.6,0,3.2-0.3,4.4-1.4c1.1-1.1,1.4-2.7,1.5-4.2 c0.1-0.9,0.1-1.8,0.1-2.7c0.2,0.7,0.5,1.3,0.8,1.9c1.4,2.9,4.4,4.8,7.6,5.3c2,0.3,4.4,0.3,6.2-0.5c1.6-0.7,3-2.1,4.1-3.5 c1.4-1.7,2.7-3.6,3.8-5.6c1.1,3.5,3.3,6.9,6.5,8.5c6.1,3,16-2.1,14.1-9.6c-0.4-1.6-1.3-3.1-2.5-4.2c-1.4-1.3-2.9-1.6-4.6-2.2 c-1.9-0.7-2.4-2.6-2.6-4.4c-0.4-5,1.5-9.9,1-14.9c-0.2-2.1-1.1-4.1-3.4-4.5c-1.8-0.3-4.1,0-5.6,1c-1,0.6-1.5,1.6-2,2.5 c-4.9-2.3-11-2.3-15.6,0.6c-1.8,1.2-3.4,2.7-4.6,4.5c0.6-1.7,1.3-3.3,2-4.9c0.7-1.4,1.3-2.9,2.2-4.2c0.7-1.2,1.7-2.3,2.4-3.5 c1.8-2.8,2.8-6.4-0.5-8.5c-3.5-2.2-8.8-2.4-11.9,0.5c-2.9,2.8-3.7,7.3-4.2,11.1c-0.4,2.5-0.6,4.9-0.9,7.4c-0.4,3.4-1.1,6.7-2,10 c-0.9,3.5-2,6.8-3,10.3c-0.4-0.6-0.9-1.1-1.5-1.6c-1.3-1-3-1.5-4-2.8c-1.6-2.2-1.4-5.5-1.2-8.1c0.3-2.9,0.9-5.9,0.8-8.8 c0-2.2-0.5-4.7-2.8-5.5c-1.7-0.6-4.1-0.3-5.8,0.5c-1.3,0.6-2,1.7-2.6,2.9c-3-1.4-6.5-1.9-9.6-1.5c-3.3,0.4-6.3,2-8.6,4.3 c-0.7,0.7-1.3,1.4-1.9,2.2c-0.3,0.4-0.5,0.7-0.8,1.1c0-0.1,0-0.1,0-0.2c0-0.4,0-0.7-0.1-1.1c-0.7-4.8-5.2-7.3-9.7-7.5 c-2-0.1-4.1,0.2-6,0.6c-2.1,0.4-4.1,1.1-6.2,1.2c-1.2,0-2.3-0.1-3.4-0.2c-1.6-0.1-3.2,0.2-4.8,0.5c-4.3,1-8.5,2.6-12.1,5.2 c-3.5,2.6-6.2,6-8.1,10c-1.8-0.7-3.9-0.8-5.9-0.6c2.2-1.5,3.6-3.8,3-6.7c-0.5-2.4-2.5-4.3-4.5-5.6c-5.3-3.4-12.7-4.6-18.9-3.5 c-5.4,1-10.3,4.2-12.5,9.3c-1,2.3-1.3,4.8-1.6,7.2c-0.3,2.2-0.4,4.4-0.5,6.6c0,4.1,0.3,8.7,2.5,12.3 C103.4,57.1,107.3,58.3,111.4,57.7L111.4,57.7z M256.9,20.5c2.4,0.1,4.9,0.8,6.9,1.9c0.5,0.3,1.2,0.1,1.4-0.4c0.4-0.9,0.8-2,1.6-2.6 c1-0.8,2.9-1.1,4.1-0.8c1.3,0.2,1.6,1.5,1.7,2.9c0.3,4.5-1.1,8.9-1.1,13.4c0,1.9,0.3,4,1.4,5.6c1.5,2.1,4.1,1.9,6,3.4 c2.3,1.8,3.3,5.1,1.6,7.6c-1.8,2.8-5.7,4.4-8.9,3.7c-4.5-1-6.9-6.2-7.7-10.4c-0.2-0.9-1.6-1.1-1.9-0.3c-0.9,2-2.1,3.9-3.3,5.7 c-1,1.4-2.1,2.9-3.5,4c-1.4,1.1-2.8,1.4-4.6,1.4c-3.2,0-6.3-1.2-7.9-4.1c-1-1.9-1.6-4.3-1.8-6.5c-0.7-5.6,0.5-11.3,2.9-16.5 C246.8,23.6,251.2,20.2,256.9,20.5L256.9,20.5z M189.5,26.6C189.5,26.6,189.5,26.6,189.5,26.6C189.6,26.7,189.6,26.7,189.5,26.6z  M189.5,26.5c0,0.1-0.1,0.1-0.1,0.1C189.3,26.3,189.4,26.4,189.5,26.5z M139.4,36.5C139.3,36.5,139.3,36.5,139.4,36.5L139.4,36.5z  M102,29.8c1.5-5.3,5.9-8.6,11.1-9.7c2.9-0.6,5.9-0.5,8.8,0c3.2,0.6,6.6,1.5,9.3,3.4c1.9,1.3,3.9,3.5,3.2,5.9 c-0.9,3.4-5.7,4.6-8.7,4.1c-2.4-0.4-4.8-1.8-6.2-3.9c-0.7-1.1-1.6-2.1-3-2.2c-1.2,0-2.3,0.6-3.1,1.5c-1,1-1.8,2.5-2.4,3.8 c-0.7,1.5-1.1,3.1-1.4,4.7c-0.2,1.5-0.3,2.9-0.2,4.4c0.1,1.2,0.1,2.5,0.4,3.6c0.4,1.2,1.7,2,3,1.7c1-0.2,1.9-1,2.8-1.5 c2.6-1.6,5.2-3.3,7.7-5.1c3-2.1,6-4.1,9.8-4.6c1.9-0.3,3.8-0.2,5.6,0.4c0.2,0.1,0.4,0.1,0.5,0.2c0,0,0,0,0.1,0 c0.5,0.2,1.2,0.2,1.4-0.4c1.7-3.7,4-7.1,7.2-9.6c3-2.3,6.5-3.9,10.1-4.9c1.8-0.5,3.6-1,5.4-1c1.1,0,2.2,0.2,3.3,0.2 c3.9,0.2,7.6-1.5,11.5-1.8c2.6-0.1,5.5,0.2,7.4,2c1.1,1,1.9,2.6,2,3.9c0.1,1.1-0.1,2.3,0.7,3.2c0.6,0.6,1.7,0.7,2.4,0.1 c0.7-0.7,1.2-1.9,1.8-2.7c0.6-0.8,1.3-1.5,2.1-2.2c1.2-1.1,2.6-1.9,4.1-2.4c3.8-1.3,8.6-0.7,11.9,1.1c0.5,0.3,1.2,0.1,1.4-0.4 c0.5-1.1,0.9-2.3,2.1-2.9c1.1-0.6,3.1-1,4.3-0.4c1.5,0.7,1.3,3.3,1.2,4.8c-0.3,5.1-2.3,11.2,0.2,16c1.7,3.2,6.4,3.5,6.8,7.5 c0,0.5,0.3,0.9,0.8,1c0,0,0,0,0,0c0.5,0.2,1.2-0.2,1.3-0.7c0.8-3.4,2-6.8,3-10.2c1.4-5,2.5-10,3.1-15.1c0.6-5.8,0.9-18.2,9.5-17.2 c1.6,0.2,4.3,0.7,5.1,2.4c0.6,1.1-0.1,2.5-0.6,3.6c-1.2,2.3-3,4.2-4.1,6.5c-2.2,4.2-3.9,8.7-5.1,13.3c-1.5,5.6-1.9,11.2-1.8,17 c0,2.1,0.2,4.2-0.1,6.3c-0.2,1.3-0.6,2.4-1.9,2.8c-1.8,0.6-4.6,0.2-6.2-0.9c-0.8-0.6-1.2-1.4-1.4-2.4c-0.2-0.9,0.2-2.5-0.5-3.1 c-0.4-0.4-1.4-0.4-1.7,0.2c-1.2,2.7-3.6,4.7-6.6,4.7c-2.3,0-4.3-1.1-5.7-2.8c-1.1-1.4-1.9-3.1-2.4-4.9c-0.2-0.6-0.3-1.3-0.5-1.9 c0-0.2-0.1-0.4-0.1-0.5c0,0,0,0,0,0c0,0,0,0,0,0v0c0-0.1,0-0.1,0-0.1c-0.2-0.9-1.5-1.5-2-0.5c-1,2.1-2.2,4.1-3.5,6 c-1,1.4-2.1,2.8-3.5,3.9c-1.3,1-2.7,1.2-4.3,1.2c-2.9,0.1-5.8-1-7.5-3.4c-1.4-2-2-4.4-2.2-6.8c-0.1-1.4-0.2-2.9,0-4.3 c0.1-0.9-1.2-1.4-1.8-0.7c-4.3,5-10.3,9-16.3,11.6c-5.5,2.4-11.8,3.9-17.9,3.4c-3.6-0.3-7.3-1.5-9.6-4.4c-0.7-0.9-1.3-1.9-1.6-2.8 c-0.1-0.3-0.2-0.7-0.3-1c0-0.2-0.1-0.7,0-0.2c-0.1-0.6-0.4-1-1.1-1.1c-2.8,0-5.3,1.1-7.8,2.2c-5.6,2.5-11.2,4.9-16.9,7 c-3.7,1.3-8.4,2.2-11.2-1.2c-2.4-2.9-2.9-7.2-2.9-10.8C100.7,38.5,100.9,33.8,102,29.8L102,29.8z M127.3,35.6 c-2.9,1.5-5.5,3.5-8.2,5.3c-1.3,0.8-2.6,1.7-3.9,2.5c-0.5,0.3-1,0.6-1.4,0.9c-0.3,0.2-1,0.8-1.4,0.7c-0.9-0.1-0.8-3-0.8-3.6 c-0.1-1.6,0-3.3,0.4-4.9c0.4-1.8,1.1-3.3,2-4.8c0.5-0.8,1.6-2.6,2.8-2.1c0.6,0.2,0.8,1,1.2,1.5c0.3,0.5,0.7,0.9,1.1,1.3 c1,0.9,2.1,1.7,3.3,2.3C124,35.3,125.7,35.7,127.3,35.6L127.3,35.6z"></path><path class="st0" d="M197.9,48.6c2.8-2,5-4.7,6.7-7.7c1.1-1.9,2.3-3.8,3.2-5.8c1-2-2.7-3.6-4.1-4.1c-1.1-0.4-2.3-0.4-3.4,0 c-3.2,1.2-4,5.2-4.4,8.2c-0.2,2.8,0,5.5,0.3,8.4C196.4,48.4,197.2,49.1,197.9,48.6L197.9,48.6z M202,32.9c0.4,0,0.6,0,1.1,0.2 c0.8,0.3,1.7,0.8,2.4,1.3c0.1,0.1,0.1,0.1,0.2,0.2c-2.1,3.9-4.1,8.1-7.5,11.1c-0.2-2.1-0.3-4.2-0.1-6.3C198.4,37,199.2,33,202,32.9 L202,32.9z"></path><path class="st0" d="M165.7,45.6c2.6-1.5,5.1-3.2,7.2-5.3c1.5-1.5,3.2-3.5,3.7-5.6c0.4-1.8-0.7-2.9-2.4-3.3c-3-0.6-6.3-0.1-9.2,0 c-4.8,0.3-8.2,3.2-9.9,7.6c-0.6,1.5-0.9,3.1-1.1,4.7c-0.1,1-0.2,2.2,0,3.1C155.2,51.9,163.3,46.9,165.7,45.6L165.7,45.6z  M156.1,44.3c0.1-1.2,0.3-2.3,0.6-3.5c1.2-4,3.9-6.9,8.2-7.2c2.5-0.1,5-0.4,7.5-0.2c0.6,0,1.3,0.1,1.8,0.3c0.4,0.2,0.4,0.1,0.3,0.4 c-0.3,1.3-1.5,3-2.5,4.1c-1.7,1.9-3.8,3.4-5.9,4.7c-1.9,1.2-3.9,2.2-5.9,3.1c-0.9,0.4-3.5,1.8-4.2,0.7 C155.8,46.2,156,44.9,156.1,44.3z"></path><path class="st0" d="M244.9,69.8c0.5-1.3,0.5-2.8-0.3-4c-1.1-1.6-3.2-2.3-5-2.9c0,0-0.1,0-0.1,0c-3.2-0.9-6.4,0-8.2,2.9 c-0.5,0.9-0.9,1.9-1.2,2.9c-0.5-1.4-1.4-2.6-2.5-3.5c-3.1-2.5-7.2-3.5-11.1-3.5c-5.2,0.1-10.7,2-14.6,5.6c-1.1-2.6-3.5-4.3-6.6-4.1 c-3.5,0.3-6.4,1.6-9,4.1c-5.6,5.3-9.4,12.3-14.8,17.7c-0.8,0.8-1.7,1.6-2.7,2.3c-0.4,0.3-0.9,0.6-1.3,0.9c-0.1,0-0.4,0.3-0.5,0.3 c-0.1,0-0.1-1.1-0.1-1.2c0-2.3,0.5-4.7,1.5-6.8c0.9-2,2.2-3.8,4.2-4.9c1.4-0.8,2.8-1.6,3.8-3c1.7-2.5,1.3-6.1-1.3-7.9 c-2.2-1.5-5.2-1.8-7.8-1.6c-3.5,0.3-7,1.5-9.7,3.9c-1.8,1.6-2.9,3.8-3.8,6.1c-0.2-0.7-0.5-1.4-0.8-2.1c-1.3-2.6-3.9-4.1-6.7-4.7 c-5.3-1.1-9.3,2.6-13,6.2c0.2-1.2,0.2-2.3-0.2-3.4c-0.7-2.1-2.8-3-4.9-3.3c-3.9-0.6-6.4,2.6-8.6,5.4c-1.5,1.9-2.9,3.9-4.4,5.8 c0.8-5.1,1-11.4-4.1-13.3c-2.7-1-6.7-1.1-9.2,0.4c-2.3,1.3-3.2,3.9-3.3,6.4c0,0.3,0,0.7,0,1c0,0.2,0.1,0.9,0,0.4 c0,0.6,0,1.3,0.1,1.9c0.1,2.9,0.2,5.9,0.2,8.8c0.1,2,0.1,4,0.2,6c0.1,3,0.5,7.4,3.2,9.4c1.4,1.1,3.3,1.3,5.1,1.3 c2.8,0,5.5-0.9,7.7-2.6c2.7-2,4.8-5.1,6.3-8.3c2.2,2.9,6.1,4.3,9.7,3.4c2-0.4,3.6-1.5,4.9-2.9c-0.1,1.2-0.2,2.4-0.3,3.5 c-0.2,2.7,0.1,5.1,2.4,6.9c3.8,2.9,9.8,1.5,12.7-2.1c1-1.2,1.6-2.6,1.9-4.1c0-0.2,0.1-0.3,0.1-0.5c1,2.9,2.9,5.4,6,6.7 c3.3,1.3,7.2,1.3,10.4-0.1c3.4-1.4,6.4-3.6,9.2-6.1c1.1-1,2.3-2.1,3.3-3.3c0.4,0.8,0.9,1.5,1.5,2.2c0.9,1,2.1,1.8,3.4,2.2 c0.7,0.3,1.5,0.4,2.2,0.5c-0.7,0.9-1.1,1.9-1.3,3.1c-0.3,2.9,1.6,4.8,4.1,6c5.2,2.5,11,0.4,15.8-2.2c4.7-2.6,9-6.2,12.8-10.1 c3-3.1,6.4-6.6,4.6-11.3c-0.6-1.5-1.7-3.1-3-4.4c2.7,0.4,5.8,0.2,7.6-1.8c-0.2,4.2-0.6,8.8-2.4,12.7c-1.1,2.4-2.7,4.6-3.2,7.2 c-0.6,2.9,0.8,5.1,3.5,6.1c2.8,1,7.5,1.6,9.9-0.8c2-2,1.7-5.3,1.5-7.9c-0.3-3.4-0.8-7,0.3-10.3C240.2,76.9,243.4,73.8,244.9,69.8 L244.9,69.8z M213.4,71.2C213.4,71.2,213.4,71.2,213.4,71.2C213.4,71.2,213.4,71.2,213.4,71.2z M225.9,73.6c-3.6,1-7.2-0.7-10.2-2.5 c-1-0.6-4.1-2.1-4.3,0.2c-0.1,1.7,2.2,2.7,3.5,3c2.7,0.5,5.5,2.7,7,5c0.9,1.3,1.5,2.9,1.2,4.5c-0.3,1.9-1.7,3.3-3,4.6 c-2.9,3.2-6.1,6.1-9.5,8.6c-3.6,2.6-7.7,4.9-12.2,5.7c-2.7,0.5-5.7-0.2-7.9-2c-1-0.9-1.2-2.1-0.9-3.4c0.1-0.5,0.4-1,0.7-1.4 c0.2-0.2,0.3-0.4,0.5-0.6c0.1-0.1,0.8-0.5,0.6-0.6c0.1,0,0.3-0.1,0.3-0.2c0,0,0,0,0,0c0.3-0.2,0.6-0.5,0.5-0.9 c0-0.8-0.9-1.4-1.6-0.9c0.4-0.3-0.6-0.1-0.8-0.1c-0.4,0-0.8,0-1.2-0.1c-0.7-0.1-1.4-0.3-2-0.6c-0.9-0.4-1.8-1.1-2.4-1.9 c-0.6-0.8-1.1-1.7-1.3-2.7c-0.1-0.7-1.3-1.1-1.8-0.5c-2.8,3.5-6.4,6.6-10.2,8.9c-1.5,0.9-3.2,1.8-4.9,2.1c-1.6,0.3-3.4,0.2-5-0.2 c-2.4-0.6-4.4-2-5.6-4.2c-1.5-2.6-1.7-5.8-1.7-8.7c0-0.5-0.3-0.9-0.8-1c0,0,0,0,0,0c-0.7-0.2-1.3,0.4-1.3,1 c-0.3,2.2-0.6,4.5-0.9,6.7c-0.2,1.3-0.5,2.4-1.1,3.5c-1.1,1.7-2.8,2.9-4.8,3.4c-1.7,0.4-3.7,0.3-5.3-0.7c-1.8-1.1-2-3-1.9-5 c0.2-3,0.5-6.1,1.2-9.1c0.3-1.3-1.6-1.8-2-0.6c-1,2.9-3.1,5.6-6.1,6.4c-3.5,1-7.2-0.9-8.7-4.1c-0.4-0.9-1.6-0.5-1.9,0.3 c-1,2.7-2.9,5.7-5,7.9c-2.6,2.7-7.4,4.6-11,2.9c-0.9-0.4-1.4-1.2-1.8-2.1c-0.7-1.8-1-4-1.1-5.9c-0.1-1.5-0.1-3-0.1-4.5 c-0.1-4.2,0-8.4-0.4-12.6c0-0.2,0,0.3,0,0.1c0-0.1,0-0.2,0-0.3c0-0.4,0-0.8,0-1.1c0-0.9,0.2-1.8,0.6-2.6c1.3-2.7,4.6-2.7,7.2-2.4 c2.2,0.3,3.9,1.2,4.6,3.4c1.1,3.8,0,8.2-0.7,12c-0.2,0.9,1,1.9,1.8,1c2.4-2.9,4.6-5.8,6.8-8.8c1.2-1.6,2.6-3.5,4.4-4.6 c1.5-0.8,3.7-0.6,5,0.4c1.8,1.4,0.5,5,0.1,6.7c-0.3,1,1,1.7,1.8,1c2.2-2,4.3-4.3,6.6-6.1c1.9-1.5,4.1-2.5,6.5-2.1 c2.5,0.4,4.8,1.6,5.9,3.9c1.1,2.4,1.1,5.2,0.9,7.7c-0.1,1.2,1.9,1.5,2.1,0.3c0.4-2.4,1-4.8,1.9-7c0.6-1.5,1.3-3,2.4-4.2 c2.1-2.1,5-3.3,7.9-3.7c2.3-0.3,5.2-0.3,7.3,1c2.6,1.7,1.5,5.2-0.8,6.6c-1.6,1-3.2,1.9-4.5,3.4c-1.1,1.4-2,3.1-2.6,4.8 c-0.7,2.1-1.1,4.3-1.1,6.5c0,0.8,0,1.7,0.7,2.3c0.7,0.6,1.6,0.7,2.4,0.3c1.7-0.8,3.4-2.3,4.7-3.6c1.8-1.7,3.3-3.7,4.8-5.6 c0.5-0.6,0.9-1.2,1.4-1.8c0.1-0.2,0.2-0.3,0.4-0.5c0,0,0,0,0,0c0.9-1.1,1.7-2.1,2.6-3.2c1.7-2,3.3-4.1,5.1-6c1.4-1.5,3-2.9,4.9-3.6 c1.6-0.6,3.6-1,5.3-0.5c1.8,0.6,2.9,1.9,3.1,3.8c0.1,0.8,1.1,1.5,1.8,0.7c3.5-3.8,8.8-6,14-6.2c3.7-0.1,8,0.7,10.8,3.4 C228.7,69.2,229.1,72.7,225.9,73.6L225.9,73.6z M237.6,78.5c-1.4,2.9-1.7,6.1-1.5,9.3c0.2,2.6,0.8,5.5,0.2,8.1 c-0.6,2.8-3.4,2.9-5.9,2.6c-2.3-0.2-5.3-1-4.9-3.9c0.3-2.2,1.7-4.3,2.7-6.2c1.7-3.3,2.3-7,2.8-10.7c0.6-4.9,0.1-15.1,8-12.9 c1.2,0.4,3.1,0.9,3.8,2.1c0.5,0.8,0.2,1.8-0.2,2.7C241.3,72.7,239.1,75.4,237.6,78.5L237.6,78.5z"></path><path class="st0" d="M282.6,79.5c-1.4-0.8-2.8-1.3-4.4-1.5c-0.1,0-0.1,0-0.1,0c-1.2-0.1-2.5,0.1-3.7,0.4c0.8-0.5,1.6-1.1,2.2-1.9 c1.2-1.6,1.9-3.7,1.3-5.7c-1-3.5-4.9-5.2-8-6.3c-4.4-1.5-9.3-2.3-14-1.6c-4.5,0.7-8,2.8-10.4,6.6c-3.5,5.5-5.2,12.8-4.4,19.3 c0.4,3,1.3,6,3.5,8.3c2.4,2.5,5.9,3.1,9.3,3.1c8.5,0,15.3-5.7,23.2-7.9c3.3-0.9,8.7-1.4,9.6-5.6C287.3,83.6,285,80.9,282.6,79.5z  M277.6,89.8c-4.2,1-8,2.8-11.8,4.7c-3.3,1.6-6.7,3.1-10.4,3.4c-3.1,0.2-6.9,0.1-9.2-2.3c-1.9-1.9-2.7-4.7-3-7.3 c-0.7-6.1,0.9-12.9,4.2-18c2.2-3.4,5.4-5,9.6-5.5c4.6-0.5,9.5,0.5,13.7,2.2c2.3,0.9,5.5,2.7,5.2,5.6c-0.2,1.3-1,2.7-1.8,3.5 c-0.8,0.7-2.2,1.1-3.3,1.3c-1.7,0.4-3.4,0.3-5-0.4c-1.9-0.8-3.6-2.3-4.7-3.8c-1.7-2.3-4.2-1-5.5,0.8c-0.7,1-1.2,2.1-1.7,3.2 c-0.8,1.7-1.6,3.4-1.8,5.3c-0.3,1.9-0.3,4,0.2,5.9c0.5,1.9,2.2,2.3,3.8,1.3c2.8-1.7,5.6-3.3,8.4-4.8c3.3-1.7,6.6-3.4,10.2-4.4 c1.2-0.3,2.4-0.6,3.7-0.5c2.5,0.3,5.5,2,6.3,4.6C285.6,88.4,279.9,89.2,277.6,89.8L277.6,89.8z M271,79.6c-0.8,0.3-1.5,0.6-2.2,0.9 c-3.7,1.6-7.2,3.5-10.7,5.5c-0.7,0.4-1.3,0.8-2,1.2c-0.4,0.2-1.1,0.9-1.6,0.9c-1.1,0.2-0.7-5-0.5-5.7c0.3-1.7,1.2-3.4,1.9-4.9 c0.5-1.1,1.1-2.4,2.1-3.1c0.7-0.5,1-0.3,1.4,0.2c0.6,0.8,1.3,1.6,2.1,2.3c2.6,2.2,5.8,3.3,9.2,2.7C270.8,79.6,270.9,79.6,271,79.6 L271,79.6z"></path><path class="st0" d="M201.2,74.3C201.2,74.3,201.2,74.3,201.2,74.3c-0.3-0.4-0.8-0.5-1.3-0.2c0,0,0,0,0,0c-0.3,0.2-0.5,0.5-0.5,0.9 c-0.7,2.5-2.1,5.3-1.8,8c0.2,2.1,2.2,5,0.5,6.9c-0.3,0.4-0.4,0.8-0.2,1.3l0,0.1c0.2,0.4,0.7,0.6,1.2,0.5c0.3-0.1,0.6-0.1,0.9-0.2 c0,0,0.2,0,0.3,0c0.1,0,0.2,0,0.2,0c3.1-0.8,6.1-1.8,8.9-3.4c1.8-1,3.6-2.2,4.8-3.9c0.8-1.1,1.2-2.5,0.6-3.7 c-0.7-1.3-2.3-1.7-3.7-1.8C207.7,78.4,203.5,77.1,201.2,74.3L201.2,74.3z M200.3,91.5C200.3,91.5,200.3,91.5,200.3,91.5 C200.3,91.5,200.3,91.5,200.3,91.5C200.3,91.5,200.3,91.5,200.3,91.5z M213,81.7c0,0,0,0.3-0.1,0.6c-0.1,0.3-0.3,0.6-0.5,0.9 c-0.6,0.8-1.5,1.5-2.4,2.1c-2.8,1.9-6.1,3.1-9.3,4c0.4-1.8-0.4-3.6-0.9-5.6c-0.3-1.5,0.1-2.9,0.5-4.3c0.2-0.7,0.5-1.5,0.7-2.2 c0.5,0.4,1.1,0.7,1.4,0.9c1.5,0.9,3.1,1.5,4.7,2.1c1.6,0.5,3.3,0.4,4.9,0.9C212.7,81.2,213,81.4,213,81.7L213,81.7z"></path></svg>